<svg width="20" height="20" viewBox="0 0 20 20" fill="none" xmlns="http://www.w3.org/2000/svg">
<path fill-rule="evenodd" clip-rule="evenodd" d="M17.9248 3.64362C17.6612 3.20716 16.2088 1.61964 15.1724 1.66757C14.8625 1.69324 14.5887 1.88066 14.3662 2.09804C13.8552 2.59697 12.3926 4.48402 12.3096 4.88111C12.1076 5.85501 13.2681 6.41642 12.9129 7.39803C12.0074 9.6137 10.4472 11.1738 8.23059 12.0784C7.24979 12.4336 6.68835 11.2731 5.7144 11.4759C5.31814 11.5589 3.43014 13.0215 2.93118 13.5324C2.71465 13.7541 2.52637 14.0288 2.50069 14.3386C2.46218 15.4297 4.1482 16.9026 4.47684 17.0909C5.25224 17.6454 6.26385 17.636 7.49713 17.0626C10.9385 15.6309 16.4382 10.235 17.8965 6.66375C18.4545 5.43738 18.493 4.41897 17.9248 3.64362Z" stroke="#197D47" stroke-width="1.5" stroke-linecap="round" stroke-linejoin="round"/>
</svg>
