<svg width="32" height="32" viewBox="0 0 32 32" fill="none" xmlns="http://www.w3.org/2000/svg">
<g filter="url(#filter0_d_501_1989)">
<rect x="4" y="3" width="24" height="24" rx="5" fill="#197D47"/>
<rect x="4.25" y="3.25" width="23.5" height="23.5" rx="4.75" stroke="#E1E1E1" stroke-opacity="0.5" stroke-width="0.5"/>
<path d="M13 19C13.5523 19 14 19.4477 14 20C14 20.5523 13.5523 21 13 21C12.4477 21 12 20.5523 12 20C12 19.4477 12.4477 19 13 19Z" stroke="white"/>
<path d="M19 19C19.5523 19 20 19.4477 20 20C20 20.5523 19.5523 21 19 21C18.4477 21 18 20.5523 18 20C18 19.4477 18.4477 19 19 19Z" stroke="white"/>
<path d="M9.49923 8.5282C9.23871 8.4366 8.95328 8.57354 8.86169 8.83405C8.7701 9.09456 8.90704 9.38 9.16755 9.47158L9.49923 8.5282ZM21.7719 13.5884L22.2616 13.6894L22.2623 13.6863L21.7719 13.5884ZM11.8054 13.5066V11.6921H10.8054V13.5066H11.8054ZM9.67337 8.58942L9.49923 8.5282L9.16755 9.47158L9.34169 9.53281L9.67337 8.58942ZM15.2917 17.8332H18.827V16.8332H15.2917V17.8332ZM11.8054 11.6921C11.8054 11.2207 11.8061 10.8273 11.7715 10.5076C11.7357 10.1767 11.6581 9.87487 11.4701 9.59978L10.6445 10.164C10.7046 10.252 10.7511 10.373 10.7773 10.6152C10.8048 10.8687 10.8054 11.1988 10.8054 11.6921H11.8054ZM9.34169 9.53281C9.78676 9.68929 10.0793 9.79299 10.2945 9.8986C10.4966 9.99778 10.5858 10.0781 10.6445 10.164L11.4701 9.59978C11.2806 9.32254 11.0287 9.14498 10.735 9.00084C10.4543 8.86312 10.096 8.73802 9.67337 8.58942L9.34169 9.53281ZM10.8054 13.5066C10.8054 14.4749 10.8145 15.1732 10.9059 15.7066C11.0034 16.2762 11.1982 16.684 11.5624 17.068L12.288 16.38C12.0746 16.1549 11.9595 15.9344 11.8915 15.5378C11.8174 15.1051 11.8054 14.4992 11.8054 13.5066H10.8054ZM15.2917 16.8332C14.3472 16.8332 13.6918 16.832 13.198 16.762C12.7215 16.6944 12.4697 16.5716 12.288 16.38L11.5624 17.068C11.9583 17.4856 12.4601 17.6674 13.0576 17.7521C13.6379 17.8344 14.377 17.8332 15.2917 17.8332V16.8332ZM11.3054 11.5799H19.3926V10.5799H11.3054V11.5799ZM21.2822 13.4875L20.9491 15.104L21.9285 15.3058L22.2616 13.6894L21.2822 13.4875ZM19.3926 11.5799C19.9635 11.5799 20.466 11.5806 20.8625 11.6249C21.0596 11.6469 21.2071 11.6775 21.3107 11.7139C21.4183 11.7517 21.4354 11.7807 21.4268 11.7695L22.2194 11.1597C22.0627 10.9561 21.8425 10.8409 21.6422 10.7705C21.4379 10.6987 21.2068 10.6571 20.9737 10.6311C20.5098 10.5792 19.945 10.5799 19.3926 10.5799V11.5799ZM22.2623 13.6863C22.3751 13.121 22.4709 12.6467 22.4943 12.2668C22.5184 11.876 22.4739 11.4907 22.2194 11.1597L21.4268 11.7695C21.4681 11.8233 21.5138 11.9201 21.4962 12.2052C21.4779 12.5012 21.4002 12.8964 21.2816 13.4905L22.2623 13.6863ZM18.827 17.8332C19.3348 17.8332 19.7609 17.8341 20.1045 17.792C20.4616 17.7484 20.7873 17.6528 21.0717 17.4211L20.4399 16.6459C20.3565 16.7139 20.2381 16.7682 19.983 16.7995C19.7142 16.8324 19.3599 16.8332 18.827 16.8332V17.8332ZM20.9491 15.104C20.8415 15.6258 20.7691 15.9728 20.6826 16.2294C20.6005 16.4729 20.5234 16.5779 20.4399 16.6459L21.0717 17.4211C21.356 17.1894 21.5153 16.8896 21.6303 16.5487C21.7408 16.2207 21.8259 15.8032 21.9285 15.3058L20.9491 15.104Z" fill="white"/>
<path d="M16.6667 15.6667V14.3333M16.6667 14.3333V13M16.6667 14.3333H18M16.6667 14.3333H15.3334" stroke="white" stroke-linecap="round"/>
</g>
<defs>
<filter id="filter0_d_501_1989" x="0" y="0" width="32" height="32" filterUnits="userSpaceOnUse" color-interpolation-filters="sRGB">
<feFlood flood-opacity="0" result="BackgroundImageFix"/>
<feColorMatrix in="SourceAlpha" type="matrix" values="0 0 0 0 0 0 0 0 0 0 0 0 0 0 0 0 0 0 127 0" result="hardAlpha"/>
<feOffset dy="1"/>
<feGaussianBlur stdDeviation="2"/>
<feComposite in2="hardAlpha" operator="out"/>
<feColorMatrix type="matrix" values="0 0 0 0 0.0980392 0 0 0 0 0.490196 0 0 0 0 0.278431 0 0 0 0.08 0"/>
<feBlend mode="normal" in2="BackgroundImageFix" result="effect1_dropShadow_501_1989"/>
<feBlend mode="normal" in="SourceGraphic" in2="effect1_dropShadow_501_1989" result="shape"/>
</filter>
</defs>
</svg>
