<svg width="20" height="20" viewBox="0 0 20 20" fill="none" xmlns="http://www.w3.org/2000/svg">
<path fill-rule="evenodd" clip-rule="evenodd" d="M10.024 1.66655C6.1831 1.6535 3.04587 4.7093 2.92048 8.5343L2.91663 8.77172C2.98047 10.6466 3.61835 12.4337 4.74186 13.9062L5.00573 14.2505C6.07813 15.6141 7.35255 16.811 8.78352 17.7974L9.12806 18.0294L9.17833 18.0688C9.66879 18.4212 10.331 18.4212 10.8215 18.0688L10.8633 18.0344C11.9988 17.2981 13.0458 16.4329 13.9837 15.4559C15.8905 13.4375 17.0397 11.1759 17.0831 8.87899L17.0832 8.79371C17.0962 4.94311 14.0498 1.79623 10.2366 1.67041L10.024 1.66655ZM10.0197 2.93105C13.1684 2.94181 15.725 5.45768 15.8199 8.59075L15.8226 8.86701C15.7861 10.7927 14.7778 12.7769 13.0721 14.5824C12.2024 15.4884 11.2272 16.2936 10.1696 16.9785L10.0991 17.0315C10.0421 17.081 9.95765 17.081 9.90069 17.0315L9.83218 16.9798C8.2566 15.9511 6.87377 14.6524 5.74693 13.1429C4.83928 11.9533 4.30142 10.531 4.19316 9.04724L4.17725 8.74972C4.18795 5.59334 6.69606 3.02898 9.8195 2.93376L10.0197 2.93105ZM9.9999 6.16758C8.50957 6.16758 7.30142 7.37946 7.30142 8.87438C7.30142 10.3693 8.50957 11.5812 9.9999 11.5812C11.4902 11.5812 12.6984 10.3693 12.6984 8.87438C12.6984 7.37946 11.4902 6.16758 9.9999 6.16758ZM9.9999 7.4321C10.794 7.4321 11.4377 8.07783 11.4377 8.87438C11.4377 9.67094 10.794 10.3167 9.9999 10.3167C9.2058 10.3167 8.56205 9.67094 8.56205 8.87438C8.56205 8.07783 9.2058 7.4321 9.9999 7.4321Z" fill="#197D47"/>
</svg>
