<svg width="21" height="21" viewBox="0 0 21 21" fill="none" xmlns="http://www.w3.org/2000/svg">
<path fill-rule="evenodd" clip-rule="evenodd" d="M11.669 0.0214844C9.28979 0.0214844 7.34788 1.89542 7.23886 4.24772L7.23403 4.45648V5.38948C7.23403 5.8037 7.56981 6.13948 7.98403 6.13948C8.36372 6.13948 8.67752 5.85733 8.72718 5.49125L8.73403 5.38948V4.45648C8.73403 2.89358 9.95605 1.61575 11.4966 1.52647L11.669 1.52148H16.544C18.1061 1.52148 19.3838 2.74362 19.473 4.28406L19.478 4.45648V15.5865C19.478 17.1493 18.2561 18.4272 16.7164 18.5165L16.544 18.5215H11.659C10.1017 18.5215 8.82799 17.3039 8.73899 15.7693L8.73403 15.5975V14.6545C8.73403 14.2403 8.39824 13.9045 7.98403 13.9045C7.60433 13.9045 7.29054 14.1866 7.24087 14.5527L7.23403 14.6545V15.5975C7.23403 17.9687 9.10083 19.9046 11.4447 20.0164L11.659 20.0215H16.544C18.9225 20.0215 20.8642 18.1474 20.9732 15.7952L20.978 15.5865V4.45648C20.978 2.07743 19.1043 0.135347 16.7527 0.0263125L16.544 0.0214844H11.669ZM0.671818 9.47968C0.529282 9.6162 0.440527 9.80843 0.440527 10.0214C0.440527 10.2365 0.531071 10.4304 0.676125 10.5672L3.58959 13.4687C3.88308 13.761 4.35795 13.76 4.65025 13.4665C4.91596 13.1997 4.93932 12.783 4.72086 12.4898L4.64807 12.4059L3.008 10.7714H13.2315C13.6457 10.7714 13.9815 10.4356 13.9815 10.0214C13.9815 9.64169 13.6994 9.32789 13.3333 9.27823L13.2315 9.27138H3.00632L4.64798 7.63779C4.91483 7.37212 4.93997 6.95551 4.72277 6.66142L4.65034 6.57714C4.38466 6.31028 3.96805 6.28514 3.67396 6.50234L3.58968 6.57478L0.671818 9.47968Z" fill="#E25440"/>
</svg>
