<svg width="39" height="39" viewBox="0 0 39 39" fill="none" xmlns="http://www.w3.org/2000/svg">
<g clip-path="url(#clip0_501_2998)">
<path d="M17.5267 7.17578C17.4344 7.17592 17.3433 7.15428 17.2608 7.11261C17.1784 7.07095 17.1069 7.01044 17.0522 6.93599C16.5171 6.20885 15.5648 5.3747 14.0662 5.53473C12.302 5.72265 10.9919 5.16119 10.2033 4.65716C10.0738 4.57225 9.98288 4.43966 9.95043 4.28818C9.91799 4.13669 9.94658 3.97852 10.03 3.84799C10.1134 3.71745 10.245 3.62508 10.3961 3.59091C10.5472 3.55674 10.7057 3.58353 10.8372 3.66548C11.467 4.06797 12.5169 4.51639 13.9416 4.36435C16.104 4.13477 17.4125 5.43975 18.0002 6.23841C18.0647 6.32603 18.1037 6.42983 18.1127 6.53825C18.1218 6.64668 18.1006 6.75549 18.0516 6.85261C18.0025 6.94973 17.9275 7.03135 17.8348 7.0884C17.7422 7.14545 17.6355 7.17569 17.5267 7.17578Z" fill="#FFD064"/>
<path d="M11.3654 10.3009C11.2569 10.3009 11.1505 10.2708 11.0581 10.2138C10.9922 10.1734 10.935 10.1204 10.8896 10.0578C10.8442 9.99525 10.8116 9.92437 10.7936 9.8492C10.7756 9.77404 10.7726 9.69607 10.7848 9.61975C10.7969 9.54343 10.824 9.47025 10.8645 9.4044C11.6188 8.17552 13.0012 7.33092 14.8622 6.96195C16.2191 6.69298 17.3576 6.76664 17.4053 6.76999C17.4824 6.77527 17.5577 6.79569 17.6269 6.83008C17.6962 6.86446 17.7579 6.91215 17.8087 6.9704C17.8595 7.02866 17.8983 7.09635 17.9229 7.1696C17.9475 7.24286 17.9575 7.32024 17.9522 7.39734C17.9299 7.72138 17.6484 7.96437 17.3255 7.94426C17.2847 7.94152 13.2887 7.70462 11.8675 10.0201C11.8149 10.106 11.741 10.1769 11.6531 10.2261C11.5652 10.2752 11.4662 10.301 11.3654 10.3009Z" fill="#FFD064"/>
<path d="M20.236 32.8512C29.9007 32.8512 35.2448 18.6748 19.9826 7.72566C19.603 7.45327 19.3775 7.01474 19.3826 6.54751C19.3874 6.16155 19.5087 5.78604 19.7306 5.47021C20.4451 4.44989 21.4735 2.70448 22.0903 1.29865C22.238 0.961975 22.0266 0.599854 21.6315 0.599854C20.7148 0.59993 20.7148 0 19.7981 0C18.8813 0 18.8813 0.59993 17.9645 0.59993C17.1833 0.59993 16.8628 -0.072211 16.483 0.41666C15.3753 1.84229 19.1693 6.8557 19.1693 6.8557C2.41343 17.8709 7.81607 32.8513 17.709 32.8513H20.236V32.8512Z" fill="#EABC6B"/>
<path d="M24.0353 6.85562C24.0353 6.85562 27.8856 1.85844 26.7784 0.424963C26.4011 -0.0636035 26.0793 0.59993 25.2989 0.59993C24.382 0.599854 24.382 0 23.4652 0C22.5484 0 22.5484 0.599854 21.6316 0.599854C21.5864 0.599854 21.5452 0.59734 21.5043 0.594521C21.1359 2.17356 19.4759 4.63354 18.5259 5.9507C18.9 6.49967 19.1694 6.85555 19.1694 6.85555C18.9485 7.00092 18.7292 7.1486 18.5115 7.29856C34.5206 18.3023 29.1639 32.8511 19.373 32.8511H25.5549C35.4778 32.8512 40.847 17.9075 24.0353 6.85562Z" fill="#E8AE4D"/>
<path d="M24.7512 8.63309C22.514 9.19814 20.3037 9.19814 18.0661 8.63309C17.2873 8.43642 16.8458 7.56067 17.126 6.7646L17.1354 6.73786C17.3704 6.07044 18.0368 5.69591 18.69 5.85991C20.5219 6.31983 22.2948 6.31998 24.1272 5.85991C24.7804 5.69591 25.4468 6.07044 25.6818 6.73786L25.6912 6.7646C25.9715 7.56067 25.53 8.43642 24.7512 8.63309Z" fill="#FFE07D"/>
<path d="M3.71545 35.4215L12.2357 38.5928C12.9594 38.8622 13.7253 39.0001 14.4974 39.0001H23.2782C24.507 39.0001 25.7106 38.6509 26.7485 37.9932L37.743 31.0265C38.4683 30.3824 38.6028 29.3 38.0571 28.498C37.46 27.6205 36.4723 27.468 35.3854 27.9819L24.6812 32.695L24.6939 30.9584C24.5521 29.5329 23.4546 28.3888 22.0362 28.1882L15.5178 27.4377C14.014 27.2249 13.2627 26.721 11.9518 25.9542C10.1621 24.9073 8.12604 24.3555 6.05264 24.3555H3.71545V35.4215Z" fill="#FFDDCE"/>
<path d="M11.7183 36.903C12.479 37.1862 13.2842 37.3312 14.0959 37.3312H23.3269C24.306 37.331 25.2736 37.1199 26.1638 36.7121L32.6185 32.622C33.2182 32.242 33.5989 31.5805 33.5794 30.8708C33.5689 30.4832 33.4471 30.1068 33.2286 29.7865C33.2286 29.7865 33.0321 29.4498 32.8302 29.107L24.6812 32.695L24.6939 30.9584C24.5521 29.5329 23.4546 28.3888 22.0362 28.1882L15.5178 27.4377C14.014 27.2249 13.2627 26.721 11.9518 25.9542C10.1621 24.9073 8.12604 24.3555 6.05264 24.3555H3.71545V33.9243L11.7183 36.903Z" fill="#FFDDCE"/>
<path d="M38.057 28.4978C37.4599 27.6203 36.4722 27.4678 35.3853 27.9817L32.441 29.2781C32.5836 29.5038 32.697 29.6839 32.697 29.6839C33.2427 30.4859 33.1083 31.5683 32.3829 32.2125L25.9766 36.2718C25.1298 36.6597 24.2094 36.8605 23.2781 36.8607H14.4974C13.7253 36.8607 12.9594 36.7228 12.2357 36.4534L3.71545 33.282V35.4212L12.2357 38.5926C12.9594 38.862 13.7253 38.9999 14.4974 38.9999H23.2783C24.5071 38.9999 25.7106 38.6507 26.7486 37.993L37.743 31.0263C38.4683 30.3822 38.6028 29.2997 38.057 28.4978Z" fill="#FFCBBE"/>
<path d="M23.8947 29.1692L23.8944 29.2111L23.9221 29.1989C23.9131 29.1888 23.9038 29.1792 23.8947 29.1692Z" fill="#F5DBCC"/>
<path d="M24.6812 32.6939H18.0253C17.7003 32.6939 17.4368 32.4304 17.4368 32.1053C17.4368 31.7802 17.7002 31.5168 18.0253 31.5168H24.6898L24.6812 32.6939Z" fill="#FFCBBE"/>
<path d="M5.54885 37.1184C5.54885 37.7366 5.04771 38.2377 4.4295 38.2377H1.72799C1.10978 38.2377 0.608643 37.7366 0.608643 37.1184V23.4123C0.608643 22.7941 1.10978 22.293 1.72799 22.293H4.4295C5.04771 22.293 5.54885 22.7941 5.54885 23.4123V37.1184Z" fill="#409346"/>
<path d="M22.8985 18.2376C22.6485 18.1495 22.3997 18.0581 22.1522 17.9632V14.211C22.8483 14.3264 23.2661 14.6865 23.2968 14.7137C23.4117 14.8182 23.5633 14.873 23.7185 14.8661C23.8736 14.8593 24.0198 14.7914 24.1251 14.6772C24.1775 14.6204 24.2182 14.5538 24.2449 14.4813C24.2716 14.4087 24.2837 14.3317 24.2806 14.2544C24.2775 14.1772 24.2592 14.1014 24.2267 14.0312C24.1943 13.9611 24.1483 13.898 24.0915 13.8456C24.0502 13.8073 23.3294 13.158 22.1521 13.0224V12.1857C22.1521 11.8606 21.8887 11.5972 21.5636 11.5972C21.2385 11.5972 20.9751 11.8606 20.9751 12.1857V13.0701C20.8278 13.0981 20.6821 13.1338 20.5385 13.1768C19.5402 13.4775 18.794 14.3335 18.591 15.4106C18.4068 16.3881 18.7167 17.3281 19.3998 17.8639C19.7919 18.1715 20.2857 18.4531 20.9751 18.7541V23.4084C20.2941 23.3798 19.8758 23.2515 19.1448 22.7734C19.0801 22.7311 19.0077 22.702 18.9318 22.6876C18.8559 22.6733 18.7779 22.674 18.7022 22.6899C18.6266 22.7057 18.5548 22.7362 18.491 22.7798C18.4271 22.8234 18.3725 22.8791 18.3302 22.9437C18.2879 23.0084 18.2587 23.0808 18.2444 23.1567C18.2301 23.2326 18.2308 23.3107 18.2466 23.3863C18.2625 23.4619 18.293 23.5337 18.3366 23.5976C18.3801 23.6614 18.4358 23.716 18.5005 23.7583C19.4612 24.3868 20.1034 24.5507 20.9751 24.5846V25.5188C20.9751 25.8438 21.2385 26.1073 21.5636 26.1073C21.8887 26.1073 22.1521 25.8439 22.1521 25.5188V24.5433C23.8041 24.2752 24.7682 22.938 24.9778 21.6906C25.24 20.1321 24.4236 18.7767 22.8985 18.2376ZM20.1262 16.9377C19.7902 16.6743 19.6452 16.1726 19.7478 15.6286C19.8427 15.1241 20.1896 14.5111 20.8781 14.3038C20.9108 14.2939 20.943 14.2853 20.9753 14.2767V17.4556C20.6228 17.2797 20.3465 17.1105 20.1262 16.9377ZM23.8172 21.4953C23.6874 22.2676 23.1205 23.0921 22.1522 23.3403V19.2198C22.2667 19.2617 22.3837 19.304 22.5062 19.3473C23.9707 19.8649 23.8799 21.1223 23.8172 21.4953Z" fill="white"/>
</g>
<defs>
<clipPath id="clip0_501_2998">
<rect width="39" height="39" fill="white"/>
</clipPath>
</defs>
</svg>
