<svg width="48" height="48" viewBox="0 0 48 48" fill="none" xmlns="http://www.w3.org/2000/svg">
<path fill-rule="evenodd" clip-rule="evenodd" d="M24 4C35.0457 4 44 12.9543 44 24C44 35.0457 35.0457 44 24 44C12.9543 44 4 35.0457 4 24C4 12.9543 12.9543 4 24 4Z" fill="#CACACA" fill-opacity="0.93"/>
<path fill-rule="evenodd" clip-rule="evenodd" d="M30.1002 24.9338C28.6422 26.5058 24.6742 29.1658 22.6442 30.0198C22.3202 30.1558 21.4942 30.4438 21.3162 30.4478C20.9382 30.4598 20.5742 30.2478 20.3982 29.9078C20.3302 29.7758 20.1302 28.9138 20.0662 28.5298C19.8762 27.3618 19.7782 25.5478 19.7802 23.7238C19.7782 21.8098 19.8842 19.9098 20.0962 18.7538C20.1522 18.4418 20.3162 17.7238 20.3642 17.6078C20.4542 17.3918 20.6182 17.2218 20.8162 17.1158C20.9682 17.0338 21.1422 16.9898 21.3162 16.9958C21.4942 16.9998 22.2182 17.2538 22.4662 17.3518C24.4222 18.1118 28.5602 20.8678 30.0802 22.4878C30.2162 22.6338 30.5902 23.0258 30.6522 23.1058C30.7942 23.2858 30.8642 23.5038 30.8642 23.7238C30.8642 23.9278 30.8022 24.1358 30.6742 24.3098C30.6082 24.3998 30.2262 24.7998 30.1002 24.9338Z" stroke="#383838" stroke-width="1.5" stroke-linecap="round" stroke-linejoin="round"/>
</svg>
