<svg width="32" height="32" viewBox="0 0 32 32" fill="none" xmlns="http://www.w3.org/2000/svg">
<path fill-rule="evenodd" clip-rule="evenodd" d="M0 16C0 7.16344 7.16344 0 16 0C24.8366 0 32 7.16344 32 16C32 24.8366 24.8366 32 16 32C7.16344 32 0 24.8366 0 16ZM16 2.23256C8.39645 2.23256 2.23256 8.39645 2.23256 16C2.23256 23.6036 8.39645 29.7674 16 29.7674C23.6036 29.7674 29.7674 23.6036 29.7674 16C29.7674 8.39645 23.6036 2.23256 16 2.23256Z" fill="#197D47"/>
<path fill-rule="evenodd" clip-rule="evenodd" d="M11.7855 20.7032C11.5077 20.1568 10.8405 19.9363 10.2914 20.2109C9.73995 20.4866 9.51644 21.1571 9.79215 21.7085L10.7906 21.2093C9.79215 21.7085 9.79189 21.708 9.79215 21.7085L9.7932 21.7106L9.79439 21.713L9.79722 21.7186L9.80465 21.733L9.82667 21.7744C9.84456 21.8074 9.86896 21.8511 9.90008 21.904C9.96226 22.0095 10.0517 22.1522 10.1704 22.3197C10.4067 22.6534 10.7641 23.0928 11.2583 23.532C12.256 24.4189 13.8126 25.3023 15.9999 25.3023C18.1872 25.3023 19.7438 24.4189 20.7415 23.532C21.2357 23.0928 21.593 22.6534 21.8294 22.3197C21.948 22.1522 22.0375 22.0095 22.0997 21.904C22.1308 21.8511 22.1552 21.8074 22.1731 21.7744L22.1951 21.733L22.2025 21.7186L22.2054 21.713L22.2066 21.7106C22.2068 21.7101 22.2076 21.7085 21.2092 21.2093L22.2076 21.7085C22.4833 21.1571 22.2598 20.4866 21.7084 20.2109C21.1593 19.9363 20.492 20.1568 20.2142 20.7032L20.21 20.7111C20.2043 20.7217 20.1931 20.7419 20.1762 20.7705C20.1425 20.8278 20.0866 20.9176 20.0076 21.0292C19.8486 21.2536 19.6013 21.5584 19.2583 21.8634C18.5816 22.4649 17.5335 23.0698 15.9999 23.0698C14.4663 23.0698 13.4182 22.4649 12.7415 21.8634C12.3985 21.5584 12.1512 21.2536 11.9922 21.0292C11.9131 20.9176 11.8573 20.8278 11.8235 20.7705C11.8067 20.7419 11.7955 20.7217 11.7897 20.7111L11.7855 20.7032ZM20.2142 20.7032C20.2142 20.7032 20.2142 20.7032 20.2142 20.7032V20.7032Z" fill="#197D47"/>
<path fill-rule="evenodd" clip-rule="evenodd" d="M7.51841 11.6874C8.0649 10.8131 9.10425 9.67442 10.7906 9.67442C12.4769 9.67442 13.5163 10.8131 14.0628 11.6874C14.3459 12.1405 14.5392 12.5846 14.6614 12.9104C14.7231 13.0751 14.7685 13.2142 14.7992 13.3153C14.8145 13.3659 14.8263 13.4074 14.8348 13.438L14.8449 13.4759L14.8482 13.4885L14.8494 13.4932L14.8499 13.4951C14.85 13.4955 14.8503 13.4967 13.7673 13.7674L14.8503 13.4967C14.9998 14.0948 14.6362 14.7009 14.0381 14.8504C13.4405 14.9998 12.8349 14.6369 12.6848 14.0397L12.6853 14.0419L12.6821 14.03C12.6786 14.0171 12.6722 13.9945 12.6629 13.9638C12.6441 13.9021 12.6139 13.8086 12.571 13.6943C12.4838 13.4619 12.3515 13.1618 12.1696 12.8707C11.7858 12.2567 11.3368 11.907 10.7906 11.907C10.2444 11.907 9.79537 12.2567 9.41162 12.8707C9.22966 13.1618 9.09735 13.4619 9.01022 13.6943C8.96733 13.8086 8.93707 13.9021 8.91834 13.9638C8.909 13.9945 8.90264 14.0171 8.89908 14.03L8.89586 14.0419L8.89646 14.0395C8.74663 14.6372 8.14097 14.9999 7.54312 14.8504C6.94502 14.7009 6.58138 14.0948 6.7309 13.4967L7.81385 13.7674C6.7309 13.4967 6.7308 13.4971 6.7309 13.4967L6.73131 13.4951L6.7318 13.4932L6.73298 13.4885L6.73625 13.4759L6.74643 13.438C6.75487 13.4074 6.76667 13.3659 6.78205 13.3153C6.81273 13.2142 6.85805 13.0751 6.91981 12.9104C7.04198 12.5846 7.23525 12.1405 7.51841 11.6874ZM8.89586 14.0419C8.89568 14.0426 8.89571 14.0425 8.89586 14.0419V14.0419Z" fill="#197D47"/>
<path fill-rule="evenodd" clip-rule="evenodd" d="M17.937 11.6874C18.4835 10.8131 19.5229 9.67442 21.2092 9.67442C22.8956 9.67442 23.9349 10.8131 24.4814 11.6874C24.7645 12.1405 24.9578 12.5846 25.08 12.9104C25.1418 13.0751 25.1871 13.2142 25.2178 13.3153C25.2331 13.3659 25.2449 13.4074 25.2534 13.438L25.2635 13.4759L25.2668 13.4885L25.268 13.4932L25.2685 13.4951C25.2686 13.4955 25.2689 13.4967 24.1859 13.7674L25.2689 13.4967C25.4184 14.0948 25.0548 14.7009 24.4567 14.8504C23.8591 14.9998 23.2535 14.6369 23.1034 14.0397L23.1039 14.0419L23.1007 14.03C23.0972 14.0171 23.0908 13.9945 23.0815 13.9638C23.0627 13.9021 23.0325 13.8086 22.9896 13.6943C22.9024 13.4619 22.7701 13.1618 22.5882 12.8707C22.2044 12.2567 21.7554 11.907 21.2092 11.907C20.663 11.907 20.214 12.2567 19.8302 12.8707C19.6483 13.1618 19.516 13.4619 19.4288 13.6943C19.3859 13.8086 19.3557 13.9021 19.3369 13.9638C19.3276 13.9945 19.3212 14.0171 19.3177 14.03L19.3145 14.0419L19.3151 14.0395C19.1652 14.6372 18.5596 14.9999 17.9617 14.8504C17.3636 14.7009 17 14.0948 17.1495 13.4967L18.2325 13.7674C17.1495 13.4967 17.1494 13.4971 17.1495 13.4967L17.1499 13.4951L17.1504 13.4932L17.1516 13.4885L17.1549 13.4759L17.165 13.438C17.1735 13.4074 17.1853 13.3659 17.2007 13.3153C17.2313 13.2142 17.2767 13.0751 17.3384 12.9104C17.4606 12.5846 17.6539 12.1405 17.937 11.6874ZM19.3145 14.0419C19.3143 14.0426 19.3143 14.0425 19.3145 14.0419V14.0419Z" fill="#197D47"/>
</svg>
