<svg width="18" height="18" viewBox="0 0 18 18" fill="none" xmlns="http://www.w3.org/2000/svg">
<path fill-rule="evenodd" clip-rule="evenodd" d="M8.82076 15.6403C7.1928 14.6384 5.67833 13.4592 4.30447 12.1239C3.33858 11.1622 2.60325 9.98983 2.15482 8.69654C1.34786 6.18773 2.29045 3.31562 4.92834 2.46564C6.31471 2.01933 7.82884 2.27441 8.99707 3.15111C10.1657 2.27548 11.6793 2.02048 13.0658 2.46564C15.7037 3.31562 16.6531 6.18773 15.8461 8.69654C15.3977 9.98983 14.6623 11.1622 13.6965 12.1239C12.3226 13.4592 10.8081 14.6384 9.18016 15.6403L9.00385 15.75L8.82076 15.6403Z" stroke="#212121" stroke-opacity="0.6" stroke-width="1.5" stroke-linecap="round" stroke-linejoin="round"/>
<path d="M11.8044 5.28979C12.6034 5.54502 13.1711 6.26232 13.2421 7.10628" stroke="#212121" stroke-opacity="0.6" stroke-width="1.5" stroke-linecap="round" stroke-linejoin="round"/>
</svg>
