<svg width="20" height="20" viewBox="0 0 20 20" fill="none" xmlns="http://www.w3.org/2000/svg">
<path fill-rule="evenodd" clip-rule="evenodd" d="M9.94808 2.86475C7.81846 2.86475 6.10787 4.57533 6.10787 6.70495C6.10787 8.8352 7.81832 10.5459 9.94808 10.5459C12.0778 10.5459 13.7883 8.8352 13.7883 6.70495C13.7883 4.57533 12.0777 2.86475 9.94808 2.86475ZM9.94808 4.11475C11.3873 4.11475 12.5383 5.26569 12.5383 6.70495C12.5383 8.14489 11.3874 9.29593 9.94808 9.29593C8.50872 9.29593 7.35787 8.14489 7.35787 6.70495C7.35787 5.26569 8.50881 4.11475 9.94808 4.11475ZM5.24161 3.64964C5.58679 3.64964 5.86661 3.92946 5.86661 4.27464C5.86661 4.61982 5.58679 4.89964 5.24161 4.89964C4.2513 4.89964 3.44814 5.70246 3.44814 6.69235C3.44814 7.68224 4.2513 8.48506 5.24161 8.48506C5.58679 8.48506 5.86661 8.76488 5.86661 9.11006C5.86661 9.45524 5.58679 9.73506 5.24161 9.73506C3.56107 9.73506 2.19814 8.37272 2.19814 6.69235C2.19814 5.01198 3.56107 3.64964 5.24161 3.64964ZM17.7058 6.69235C17.7058 5.01198 16.3429 3.64964 14.6623 3.64964C14.3172 3.64964 14.0373 3.92946 14.0373 4.27464C14.0373 4.61982 14.3172 4.89964 14.6623 4.89964C15.6527 4.89964 16.4558 5.70246 16.4558 6.69235C16.4558 7.68224 15.6527 8.48506 14.6623 8.48506C14.3172 8.48506 14.0373 8.76488 14.0373 9.11006C14.0373 9.45524 14.3172 9.73506 14.6623 9.73506C16.3429 9.73506 17.7058 8.37272 17.7058 6.69235ZM17.0798 11.296C16.6797 11.2057 16.252 11.1439 15.8172 11.1139C15.4728 11.0902 15.1744 11.3501 15.1507 11.6945C15.1269 12.0388 15.3868 12.3372 15.7312 12.361C16.1033 12.3866 16.4679 12.4393 16.8225 12.5191C17.3739 12.6273 17.7334 12.8066 17.8226 12.9936C17.8897 13.1347 17.8897 13.3007 17.822 13.4435C17.7339 13.6286 17.3774 13.807 16.8339 13.9188C16.4957 13.9883 16.278 14.3188 16.3475 14.6569C16.4171 14.995 16.7475 15.2127 17.0856 15.1432C17.9841 14.9584 18.6423 14.629 18.9511 13.9798C19.18 13.4972 19.18 12.9374 18.9511 12.456C18.6401 11.8044 17.9706 11.4704 17.0798 11.296ZM4.75329 11.6945C4.72954 11.3501 4.43113 11.0902 4.08677 11.1139C3.65194 11.1439 3.2243 11.2057 2.80699 11.2996L2.63495 11.336C1.84527 11.5164 1.24281 11.848 0.953629 12.4559C0.72375 12.9369 0.72375 13.4977 0.953871 13.9803C1.26131 14.6288 1.91945 14.9583 2.81832 15.1432C3.15643 15.2127 3.48688 14.995 3.5564 14.6569C3.62593 14.3188 3.4082 13.9883 3.0701 13.9188C2.52669 13.8071 2.17055 13.6287 2.08278 13.4436C2.0144 13.3002 2.0144 13.1352 2.08194 12.9939C2.17109 12.8065 2.53023 12.6272 3.06429 12.5227L3.34198 12.4658C3.6188 12.4146 3.89369 12.3802 4.17277 12.361C4.51713 12.3372 4.77703 12.0388 4.75329 11.6945ZM4.30586 14.3206C4.30586 12.3323 6.36247 11.6331 9.94808 11.6331L10.2021 11.6343C13.6379 11.6666 15.5903 12.3674 15.5903 14.3061C15.5903 16.1992 13.724 16.924 10.4497 16.9888L9.94808 16.9936C6.35425 16.9936 4.30586 16.3067 4.30586 14.3206ZM14.3403 14.3061C14.3403 13.3807 12.8565 12.8831 9.94808 12.8831C7.04249 12.8831 5.55586 13.3886 5.55586 14.3206C5.55586 15.2462 7.03918 15.7436 9.94808 15.7436C12.8528 15.7436 14.3403 15.2377 14.3403 14.3061Z" fill="#197D47"/>
</svg>
